<svg xmlns="http://www.w3.org/2000/svg" width="14.969" height="11" viewBox="0 0 14.969 11">
  <defs>
    <style>
      .cls-1 {
        fill: #b0b0b0;
        fill-rule: evenodd;
      }
    </style>
  </defs>
  <path id="Comments_icon" data-name="Comments icon" class="cls-1" d="M262.888,754c3.271,0,5.069,1.877,5.069,4.234s-1.8,3.91-5.069,3.91a8.213,8.213,0,0,1-1.165-.083,4.831,4.831,0,0,1-3.761,1.811c1.7-.8,1.487-2.153,1.185-2.33a3.955,3.955,0,0,1-2.182-3.308C256.965,755.876,259.617,754,262.888,754Zm0.987,9.05a2.726,2.726,0,0,0,2.281.889,8.017,8.017,0,0,0,1.164-.166,3.723,3.723,0,0,0,4.012,1.033c-1.7-.8-1.737-1.732-1.435-1.909a3.805,3.805,0,0,0,2.046-3.308,4.166,4.166,0,0,0-3.624-4.107C270.061,758.991,268.934,763.081,263.875,763.049Z" transform="translate(-256.969 -754)"/>
</svg>
