<svg xmlns="http://www.w3.org/2000/svg" width="17" height="22" viewBox="0 0 17 22">
  <defs>
    <style>
      .cls-1 {
        fill: #717171;
        fill-rule: evenodd;
      }
    </style>
  </defs>
  <path id="pinterest" class="cls-1" d="M411.223,1453c4.237-.06,6.89,1.61,8.139,4.53a7.618,7.618,0,0,1,.522,4.21c-0.132.59-.17,1.2-0.348,1.75a10.4,10.4,0,0,1-1.461,2.98,6.37,6.37,0,0,1-3.757,2.36,4.337,4.337,0,0,1-3.513-.74,1.571,1.571,0,0,1-.66-0.74H410.11a9.348,9.348,0,0,1-.452,1.76c-0.228.74-.272,1.51-0.557,2.21a14.107,14.107,0,0,1-1.113,2.14c-0.217.34-.816,1.53-1.252,1.54a0.46,0.46,0,0,1-.07-0.28,3.019,3.019,0,0,1-.1-0.88,5.231,5.231,0,0,1-.07-1.75v-0.74c0.112-.5.108-1.02,0.244-1.51,0.3-1.05.46-2.17,0.765-3.26,0.293-1.05.562-2.2,0.8-3.26a4.673,4.673,0,0,0-.313-1.2,4.7,4.7,0,0,1,.209-2.56c0.324-.77,1.274-1.95,2.5-1.65a2,2,0,0,1,1.287,2.6c-0.348,1.38-.8,2.62-1.113,4a1.722,1.722,0,0,0,.139.95,2.006,2.006,0,0,0,2.365,1.23c1.8-.44,2.589-2.02,3.131-3.72,0.146-.46.129-0.9,0.243-1.41a6.952,6.952,0,0,0-.208-3.51,4.61,4.61,0,0,0-3.027-2.66l-1.182-.21a6.142,6.142,0,0,0-2.365.21,5.717,5.717,0,0,0-4,3.47,6.106,6.106,0,0,0-.453,2.14c-0.011.11-.023,0.21-0.034,0.32a6.178,6.178,0,0,0,.487,1.89,3.244,3.244,0,0,1,.591.88,1.842,1.842,0,0,1-.174.7,3.741,3.741,0,0,1-.174.77c-0.226.4-.842,0.1-1.113-0.07a5.633,5.633,0,0,1-1.913-5.89,8.594,8.594,0,0,1,.244-1.05,8.848,8.848,0,0,1,3.965-4.53,9.414,9.414,0,0,1,2.469-.84Z" transform="translate(-403 -1453)"/>
</svg>
