<svg xmlns="http://www.w3.org/2000/svg" width="22" height="18" viewBox="0 0 22 18">
  <defs>
    <style>
      .cls-1 {
        fill: #717171;
        fill-rule: evenodd;
      }
    </style>
  </defs>
  <path id="twitter" class="cls-1" d="M414.964,1418a4.615,4.615,0,0,1,3.568,1.43,7.293,7.293,0,0,0,2.312-.79c0.187-.1.374-0.2,0.561-0.31a4.584,4.584,0,0,1-1.464,2.14,1.951,1.951,0,0,1-.5.35v0.01a8.449,8.449,0,0,0,2.555-.69v0.01a7.449,7.449,0,0,1-1.531,1.77c-0.234.19-.469,0.37-0.7,0.56a13.1,13.1,0,0,1-.209,2.92c-1.128,5.11-4.114,8.58-8.842,10.06a13.292,13.292,0,0,1-6.387.27,15.37,15.37,0,0,1-2.653-.88,10.11,10.11,0,0,1-1.278-.66l-0.4-.24a7.579,7.579,0,0,0,1.442.05c0.444-.07.879-0.05,1.289-0.14a9.329,9.329,0,0,0,2.708-.99,4.972,4.972,0,0,0,1.223-.8,3.659,3.659,0,0,1-1.344-.25,4.542,4.542,0,0,1-2.863-2.91,4.339,4.339,0,0,0,2.015-.09,3.284,3.284,0,0,1-1.475-.59,4.4,4.4,0,0,1-2.125-3.9c0.154,0.07.308,0.15,0.462,0.22a5.08,5.08,0,0,0,.947.27,1.278,1.278,0,0,0,.617.05h-0.022c-0.227-.26-0.6-0.44-0.826-0.73a4.657,4.657,0,0,1-1.013-4.12,5.342,5.342,0,0,1,.485-1.19c0.007,0,.014.01,0.022,0.01a2.781,2.781,0,0,0,.407.48,8.242,8.242,0,0,0,1.343,1.29,13.228,13.228,0,0,0,5.517,2.69,8.49,8.49,0,0,0,2.026.27,4.272,4.272,0,0,1,.022-2.14,4.47,4.47,0,0,1,2.554-3.05,5.1,5.1,0,0,1,1-.31C414.6,1418.05,414.78,1418.02,414.964,1418Z" transform="translate(-400 -1418)"/>
</svg>
