<svg xmlns="http://www.w3.org/2000/svg" width="22" height="22" viewBox="0 0 22 22">
  <defs>
    <style>
      .cls-1 {
        fill: #717171;
        fill-rule: evenodd;
      }
    </style>
  </defs>
  <path id="youtube" class="cls-1" d="M445.463,1453l-0.873,3.4H444.5l-0.917-3.4h-1.422l1.806,5.63V1461h1.037v-2.52L446.9,1453h-1.435Zm4.521,3.7a1.511,1.511,0,0,0-.5-1.17,1.176,1.176,0,0,0-.934-0.55,1.354,1.354,0,0,0-1.049.52,1.456,1.456,0,0,0-.506,1.16v2.63a1.671,1.671,0,0,0,.494,1.27,1.2,1.2,0,0,0,1.035.47,1.083,1.083,0,0,0,.969-0.45,1.673,1.673,0,0,0,.486-1.27v-2.61Zm4-1.72h-1v4.01a1.661,1.661,0,0,1-.386.34c-0.142.09-.258,0.51-0.35,0.51a0.2,0.2,0,0,1-.192-0.1,0.548,0.548,0,0,1-.082-0.33v-4.43h-1v4.87a1.363,1.363,0,0,0,.219.84c0.147,0.18.052,0.28,0.343,0.28a1.581,1.581,0,0,0,.728-0.2,5.747,5.747,0,0,0,.721-0.96v1.07h1v-5.9Zm6.024,12.11a4.067,4.067,0,0,0-4.022-4.11H442.014a4.067,4.067,0,0,0-4.023,4.11v3.8a4.067,4.067,0,0,0,4.023,4.11h13.975a4.067,4.067,0,0,0,4.022-4.11v-3.8Zm-5.543,5.9a1.384,1.384,0,0,1-1.079-.44,1.686,1.686,0,0,1-.393-1.19V1469a2.8,2.8,0,0,1,.433-1.57,1.5,1.5,0,0,1,1.115-.43,1.391,1.391,0,0,1,1.075.4,3.047,3.047,0,0,1,.374,1.6v1h-1.947v1.33a1.2,1.2,0,0,0,.1.58,0.371,0.371,0,0,0,.346.16,0.417,0.417,0,0,0,.354-0.14,1.158,1.158,0,0,0,.1-0.6v-0.24h1.047v0.27a1.711,1.711,0,0,1-.383,1.22A1.5,1.5,0,0,1,454.468,1472.99Zm0.478-3.81v-0.19a3.4,3.4,0,0,0-.107-0.93,0.378,0.378,0,0,0-.338-0.14,0.394,0.394,0,0,0-.35.14,3.413,3.413,0,0,0-.105.93v0.19h0.9Zm-3.9,3.82a1.2,1.2,0,0,1-.548-0.12,1.332,1.332,0,0,1-.448-0.37v0.42h-1.06v-7.94h1v2.4a1.873,1.873,0,0,1,.511-0.38,0.974,0.974,0,0,1,.485-0.13,0.9,0.9,0,0,1,.759.35,1.687,1.687,0,0,1,.264,1.03v3.53a1.429,1.429,0,0,1-.248.9A0.844,0.844,0,0,1,451.046,1473Zm-0.028-4.68a0.737,0.737,0,0,0-.2-0.43,0.41,0.41,0,0,0-.327-0.14,0.461,0.461,0,0,0-.223.06,0.98,0.98,0,0,0-.278.16v3.91a1.142,1.142,0,0,0,.31.2,0.743,0.743,0,0,0,.254.06,0.331,0.331,0,0,0,.283-0.12,0.62,0.62,0,0,0,.184-0.38v-3.32Zm-4.071,3.95a2.8,2.8,0,0,1-.605.57,1.314,1.314,0,0,1-.609.17,0.649,0.649,0,0,1-.548-0.24,1.221,1.221,0,0,1-.215-0.73v-5.03h1.017v4.65a0.477,0.477,0,0,0,.065.28,0.252,0.252,0,0,0,.215.09,0.753,0.753,0,0,0,.355-0.12,1.78,1.78,0,0,0,.387-0.29v-4.61H448v5.98h-1.049v-0.72Zm-2.953.72h-1.005v-7H442v-1h3.01v1h-1.018v7Zm4.5-13.04a0.514,0.514,0,0,1-.382-0.14,0.574,0.574,0,0,1-.134-0.4v-2.79a0.409,0.409,0,0,1,.143-0.33,0.521,0.521,0,0,1,.373-0.13,0.432,0.432,0,0,1,.34.13,0.394,0.394,0,0,1,.154.33v2.79a0.536,0.536,0,0,1-.151.4A0.436,0.436,0,0,1,448.494,1459.95Z" transform="translate(-438 -1453)"/>
</svg>
